<svg width="96" height="264" viewBox="0 0 96 264" fill="none" xmlns="http://www.w3.org/2000/svg">
<path d="M41 79C43.7614 81.7614 43.7614 86.2386 41 89C38.2386 91.7614 33.7614 91.7614 31 89C28.2386 86.2386 28.2386 81.7614 31 79C33.7614 76.2386 38.2386 76.2386 41 79Z" stroke="white" stroke-width="2"/>
<path d="M25 84H47" stroke="white" stroke-width="2"/>
<path d="M41 223C43.7614 225.761 43.7614 230.239 41 233C38.2386 235.761 33.7614 235.761 31 233C28.2386 230.239 28.2386 225.761 31 223C33.7614 220.239 38.2386 220.239 41 223Z" stroke="white" stroke-width="2"/>
<path d="M25 226H47" stroke="white" stroke-width="2"/>
<path d="M25 230H47" stroke="white" stroke-width="2"/>
<path d="M43 20H30V3" stroke="white" stroke-width="2"/>
<path d="M44 30H28L36 42L44 30Z" stroke="white" stroke-width="2" stroke-linecap="square"/>
<path d="M31 172.5L36 186.5L41 172.5" stroke="white" stroke-width="2" stroke-linecap="square"/>
<path d="M29 178.5H43" stroke="white" stroke-width="2"/>
<path d="M55 76.5L60 90.5L65 76.5" stroke="white" stroke-width="2" stroke-linecap="square"/>
<path d="M53 84.5H67" stroke="white" stroke-width="2"/>
<path d="M53 80.5H67" stroke="white" stroke-width="2"/>
<path d="M55 100.5L60 114.5L65 100.5" stroke="white" stroke-width="2" stroke-linecap="square"/>
<path d="M60 100.5L55 114.5" stroke="white" stroke-width="2" stroke-linecap="square"/>
<path d="M53 108.5H67" stroke="white" stroke-width="2"/>
<path d="M55 67.5L60 53.5L65 67.5" stroke="white" stroke-width="2" stroke-linecap="square"/>
<path d="M60 67.5L55 53.5" stroke="white" stroke-width="2" stroke-linecap="square"/>
<path d="M42.7042 208.634C41.8411 210.02 40.624 211.042 39.2433 211.577C37.8654 212.111 36.378 212.14 34.9863 211.661C33.5919 211.182 32.3459 210.21 31.4418 208.86C30.5368 207.509 30.0277 205.857 30.0011 204.142C29.9745 202.426 30.4321 200.754 31.2958 199.366C32.1589 197.98 33.376 196.958 34.7567 196.423C36.1346 195.889 37.622 195.86 39.0137 196.339C40.4081 196.818 41.6541 197.79 42.5582 199.14" stroke="white" stroke-width="2" stroke-linecap="square" stroke-linejoin="round"/>
<path d="M29 196V212" stroke="white" stroke-width="2" stroke-linecap="square"/>
<path d="M67.2799 136.658C66.4687 138.048 65.3324 139.06 64.0599 139.585C62.7929 140.109 61.4298 140.137 60.1516 139.668C58.8681 139.197 57.7063 138.237 56.8571 136.885C56.0073 135.531 55.5262 133.871 55.501 132.143C55.4759 130.414 55.9084 128.733 56.7201 127.342C57.5313 125.952 58.6676 124.94 59.9401 124.415C61.2071 123.891 62.5702 123.863 63.8484 124.332C65.1319 124.803 66.2937 125.763 67.1429 127.115" stroke="white" stroke-width="2" stroke-linecap="square" stroke-linejoin="round"/>
<path d="M51.5 124V140" stroke="white" stroke-width="2" stroke-linecap="square"/>
<path d="M55.5 124V140" stroke="white" stroke-width="2" stroke-linecap="square"/>
<path d="M36 56H27L31.5 64L36 56ZM36 56H45L40.5 64L36 56Z" stroke="white" stroke-width="2" stroke-linecap="square"/>
<path d="M28.5 260.5V244.5H44.5" stroke="white" stroke-width="2"/>
<path d="M28 101V101.333M45 114.5H36.5001M28 101.333V114.5H36.5001M28 101.333C28 101.333 30 113.5 36.5001 114.5M36.5001 114.5L36.5 101" stroke="white" stroke-width="2"/>
<path d="M28 127.5H44M36 124.5V139.5" stroke="white" stroke-width="2" stroke-linecap="square"/>
<path d="M17 7C19.7614 9.76143 19.7614 14.2386 17 17C14.2386 19.7614 9.76143 19.7614 7 17C4.23858 14.2386 4.23858 9.76143 7 7C9.76143 4.23858 14.2386 4.23858 17 7Z" stroke="white" stroke-width="2"/>
<path d="M4 29V31.3333M21 42.5H18.8918M4 31.3333V42.5H18.8918M4 31.3333C4 31.3333 7.39181 41.5 18.8918 42.5" stroke="white" stroke-width="2"/>
<path d="M18.5532 88.5886C17.5842 89.9725 16.2019 91.0141 14.6045 91.5641C13.0072 92.1142 11.2766 92.1444 9.66103 91.6504C8.04541 91.1565 6.62764 90.1638 5.61092 88.8145C4.59419 87.4653 4.0307 85.8288 4.00122 84.1396C3.97173 82.4504 4.47776 80.7953 5.44678 79.4114C6.4158 78.0275 7.79806 76.9859 9.39545 76.4359C10.9928 75.8858 12.7234 75.8556 14.339 76.3496C15.9546 76.8435 17.3724 77.8362 18.3891 79.1855" stroke="white" stroke-width="2" stroke-linecap="square" stroke-linejoin="round"/>
<path d="M4 100L20 116" stroke="white" stroke-width="2"/>
<path d="M4.5 140.5V124.5H20.5M8.32353 139.559H20.5" stroke="white" stroke-width="2"/>
<path d="M4.5 188.501C4.5 188.501 4.5 164.817 4.5 172.501C4.5 180.185 13 180.501 13 180.501M8.32353 187.56H20.5" stroke="white" stroke-width="2"/>
<path d="M5 198L10.2174 211M13.7826 198L19 211" stroke="white" stroke-width="2" stroke-linecap="square"/>
<path d="M4 247.5H20M7.5 244.5V259.5M16.5 244.5V259.5" stroke="white" stroke-width="2" stroke-linecap="square"/>
<path d="M52 202.5C52 202.5 55 199.5 60 199.5C65 199.5 68 202.5 68 202.5M57 196.5V211.5M63 196.5V211.5" stroke="white" stroke-width="2" stroke-linecap="square"/>
<path d="M52 157.5C52 157.5 55 154.5 60 154.5C65 154.5 68 157.5 68 157.5" stroke="white" stroke-width="2" stroke-linecap="square"/>
<path d="M60 148.5V163.5" stroke="white" stroke-width="2" stroke-linecap="square"/>
<path d="M52.5 180.125H67.5" stroke="white" stroke-width="2" stroke-linecap="square"/>
<path d="M56 172V175.563M56 181.125V175.563M62 175.563H56" stroke="white" stroke-width="2"/>
<path d="M56 180.125L63 187.125" stroke="white" stroke-width="2" stroke-linecap="square"/>
<path d="M32 164.501C32 164.501 32 140.817 32 148.501C32 156.185 40.5 156.501 40.5 156.501" stroke="white" stroke-width="2"/>
<path d="M76 3V10" stroke="white" stroke-width="2"/>
<path d="M76 30.5C76 30.5 79 27.5 84 27.5C89 27.5 92 30.5 92 30.5" stroke="white" stroke-width="2" stroke-linecap="square"/>
</svg>
